#!OML:ASF F:\VICON\USERDATA\INSTALL\rory3\rory3.ASF
:FULLY-SPECIFIED
:DEGREES
177
root 0.0728114 18.2821 8.08729 -2.37742 -0.871017 -5.21806
lowerback 10.6363 -0.281738 3.43051
upperback 1.47826 0.182725 3.38531
thorax -4.42484 0.0580548 1.57416
lowerneck -15.9305 -3.3071 -0.877686
upperneck 18.6996 -4.34135 -0.0277511
head 8.46784 -2.11421 -0.379989
rclavicle 2.08724e-015 1.07344e-014
rhumerus -33.2675 -16.1386 -78.025
rradius 23.7206
rwrist 8.1439
rhand -16.0816 24.6936
rfingers 7.12502
rthumb 10.1214 -5.04301
lclavicle 2.08724e-015 1.07344e-014
lhumerus -29.8326 -1.71666 82.8408
lradius 28.6641
lwrist -1.2435
lhand -20.3635 37.0669
lfingers 7.12502
lthumb 5.98892 66.9622
rfemur -12.9866 4.53949 30.2432
rtibia 28.1009
rfoot -11.0637 -3.3917
rtoes 6.24704
lfemur -13.5503 2.35379 -13.7965
ltibia 71.3429
lfoot -1.0808 -12.2382
ltoes -7.82848
178
root 0.063198 18.2693 8.25237 -2.33857 -0.940706 -5.40443
lowerback 10.443 -0.196922 3.59649
upperback 1.49978 0.302152 3.40002
thorax -4.29429 0.11579 1.47778
lowerneck -15.939 -3.33461 -0.862731
upperneck 18.8473 -4.38791 -0.0139152
head 8.51951 -2.13268 -0.385357
rclavicle 9.44227e-016 1.59028e-015
rhumerus -32.7549 -16.0687 -78.0723
rradius 23.4989
rwrist 7.99404
rhand -14.2776 24.3988
rfingers 7.12502
rthumb 11.8615 -5.24529
lclavicle 9.44227e-016 1.59028e-015
lhumerus -30.4321 -1.4957 83.1243
lradius 28.284
lwrist -0.404494
lhand -23.7261 32.3332
lfingers 7.12502
lthumb 2.74192 62.2953
rfemur -12.3568 4.62359 30.5459
rtibia 28.0423
rfoot -11.4367 -3.61628
rtoes 6.23709
lfemur -13.9595 3.07771 -13.5556
ltibia 71.9983
lfoot -4.3137 -10.9613
ltoes -21.5468
179
root 0.0524615 18.2804 8.42387 -2.42575 -0.921876 -5.33518
lowerback 10.5014 -0.148638 3.52267
upperback 1.4622 0.359259 3.31172
thorax -4.36591 0.143762 1.41945
lowerneck -15.7698 -3.28676 -0.731233
upperneck 18.8926 -4.34434 -0.0727957
head 8.49962 -2.10949 -0.418684
rclavicle -3.03147e-015 -1.47101e-014
rhumerus -32.4418 -15.7843 -78.2164
rradius 23.4255
rwrist 7.34268
rhand -12.6235 24.6844
rfingers 7.12502
rthumb 13.4561 -4.86094
lclavicle -3.03147e-015 -1.47101e-014
lhumerus -30.8724 -1.75471 83.5264
lradius 27.6662
lwrist 0.752427
lhand -27.639 27.3927
lfingers 7.12502
lthumb -1.03722 57.3699
rfemur -11.3872 4.49475 30.5594
rtibia 27.6466
rfoot -11.9586 -3.57424
rtoes 6.57342
lfemur -14.9125 3.17741 -13.6203
ltibia 72.2325
lfoot -4.82719 -10.2128
ltoes -20.3626
180
root 0.0408622 18.3235 8.59803 -2.5318 -0.999602 -5.53075
lowerback 10.725 -0.0774905 3.69685
upperback 1.42262 0.489948 3.3241
thorax -4.53041 0.203667 1.31722
lowerneck -15.8553 -3.28139 -0.776439
upperneck 19.0671 -4.3299 -0.0596899
head 8.57556 -2.10308 -0.409015
rclavicle -6.60959e-015 -3.22031e-014
rhumerus -31.9883 -15.3045 -78.3963
rradius 23.558
rwrist 7.13253
rhand -14.8686 24.4262
rfingers 7.12502
rthumb 11.2915 -5.24987
lclavicle -6.60959e-015 -3.22031e-014
lhumerus -31.081 -2.36854 84.0338
lradius 27.0501
lwrist 1.01824
lhand -30.9802 22.5798
lfingers 7.12502
lthumb -4.26402 52.5169
rfemur -10.3805 4.33195 30.8766
rtibia 27.1955
rfoot -12.168 -3.39685
rtoes 6.49844
lfemur -16.6338 3.03461 -13.3391
ltibia 72.1388
lfoot -2.84882 -10.4538
ltoes -7.09317
181
root 0.0347468 18.3464 8.76468 -2.50656 -1.15011 -5.84216
lowerback 10.7161 0.0508186 4.10538
upperback 1.43366 0.706267 3.3195
thorax -4.50812 0.303756 1.05184
lowerneck -15.9748 -3.36206 -0.926215
upperneck 19.2801 -4.452 0.153313
head 8.67911 -2.14661 -0.332637
rclavicle -2.48481e-016 -9.93923e-015
rhumerus -31.5815 -15.1111 -78.5632
rradius 24.0238
rwrist 7.21684
rhand -16.8426 23.4883
rfingers 7.12502
rthumb 9.38719 -6.28267
lclavicle -2.48481e-016 -9.93923e-015
lhumerus -31.2555 -2.2903 84.1974
lradius 26.7642
lwrist -0.940649
lhand -31.509 21.7873
lfingers 7.12502
lthumb -4.77461 51.7135
rfemur -9.56978 4.13733 31.2897
rtibia 26.7628
rfoot -12.2577 -3.18665
rtoes 6.29409
lfemur -18.0129 3.16146 -12.9681
ltibia 71.9825
lfoot -2.68097 -10.0479
ltoes -4.63501
182
root 0.0348188 18.357 8.93125 -2.43363 -1.19279 -5.48595
lowerback 10.5857 0.140947 3.88453
upperback 1.45061 0.780769 3.10679
thorax -4.41652 0.343978 0.942522
lowerneck -15.9265 -3.43656 -0.939687
upperneck 19.3573 -4.56399 0.202097
head 8.69886 -2.19469 -0.327621
rclavicle -5.26779e-015 -1.47101e-014
rhumerus -31.2374 -14.6065 -78.8706
rradius 24.5847
rwrist 6.86082
rhand -16.8212 22.3831
rfingers 7.12502
rthumb 9.40785 -7.38694
lclavicle -5.26779e-015 -1.47101e-014
lhumerus -31.7085 -2.30659 84.3447
lradius 26.8136
lwrist -1.89254
lhand -30.7353 23.3782
lfingers 7.12502
lthumb -4.0275 53.3198
rfemur -8.97812 3.95133 30.9105
rtibia 26.5533
rfoot -12.611 -2.94994
rtoes 6.16707
lfemur -19.0341 3.18759 -13.4725
ltibia 71.6773
lfoot -3.13288 -9.16324
ltoes -5.96235
183
root 0.0336842 18.3458 9.09025 -2.33723 -1.28949 -5.40568
lowerback 10.3744 0.239047 3.90115
upperback 1.52009 0.890649 2.99176
thorax -4.22267 0.400175 0.798098
lowerneck -15.7334 -3.46602 -1.008
upperneck 19.094 -4.61871 0.357424
head 8.58056 -2.21161 -0.263906
rclavicle 1.83876e-015 2.82274e-014
rhumerus -30.5936 -14.2327 -79.0935
rradius 24.8281
rwrist 6.65658
rhand -16.6643 21.4612
rfingers 7.12502
rthumb 9.55922 -8.30192
lclavicle 1.83876e-015 2.82274e-014
lhumerus -31.9817 -2.83278 84.7341
lradius 26.6854
lwrist -1.486
lhand -30.5038 23.4545
lfingers 7.12502
lthumb -3.804 53.4003
rfemur -8.61129 3.70176 30.86
rtibia 26.6955
rfoot -13.1295 -2.70032
rtoes 5.29627
lfemur -20.0161 3.27838 -13.6371
ltibia 71.3967
lfoot -4.00453 -8.27644
ltoes -5.28007
